<svg width="40" height="40" viewBox="0 0 40 40" fill="none" xmlns="http://www.w3.org/2000/svg">
    <rect x="8.500000" y="3.500000" rx="3.000000" width="23.000000" height="30.000000" fill="#FFFFFF"/>
    <rect x="8.500000" y="3.500000" rx="3.000000" width="23.000000" height="30.000000" stroke="#000000"/>
    <path d="M16.662 26.2544Q17.2568 26.5415 18.0532 26.5415L18.853 26.5415L18.853 25.1675L18.1796 25.1675Q17.6054 25.1675 17.291 24.8872Q16.9765 24.6069 16.9902 24.0771L17.1303 21.835Q17.185 20.9668 16.6586 20.4438Q16.2738 20.0565 15.6724 19.9542Q16.2839 19.8547 16.6655 19.4731Q17.185 18.9536 17.1303 18.0854L16.9902 15.8433Q16.9628 15.2827 17.2841 15.0195Q17.6054 14.7529 18.1796 14.7529L18.853 14.7529L18.853 13.3789L18.0532 13.3789Q17.2431 13.3789 16.6552 13.6592Q16.0673 13.9395 15.7563 14.4795Q15.4487 15.0195 15.4931 15.7612L15.6332 18Q15.6606 18.6597 15.394 18.9673Q15.1274 19.2749 14.3447 19.2749L12.7485 19.2749L12.7485 20.6455L14.3447 20.6455Q15.1274 20.6455 15.394 20.96Q15.6606 21.2744 15.6332 21.9204L15.4931 24.1455Q15.435 24.8872 15.7495 25.4272Q16.0673 25.9673 16.662 26.2544ZM21.1484 25.1675L21.1484 26.5415L21.9448 26.5415Q22.7583 26.5415 23.3462 26.2544Q23.9341 25.9673 24.2485 25.4272Q24.563 24.8872 24.5083 24.1455L24.3682 21.9204Q24.3408 21.2744 24.6143 20.96Q24.8877 20.6455 25.6567 20.6455L27.2529 20.6455L27.2529 19.2749L25.6567 19.2749Q24.8877 19.2749 24.6143 18.9673Q24.3408 18.6597 24.3682 18L24.5083 15.7612Q24.563 15.0195 24.2485 14.4795Q23.9341 13.9395 23.3462 13.6592Q22.7583 13.3789 21.9448 13.3789L21.1484 13.3789L21.1484 14.7529L21.8184 14.7529Q22.4097 14.7529 22.7241 15.0195Q23.0386 15.2827 23.0112 15.8433L22.8711 18.0854Q22.813 18.9536 23.3291 19.4731Q23.7132 19.8547 24.3272 19.9542Q23.7233 20.0565 23.3359 20.4438Q22.813 20.9668 22.8711 21.835L23.0112 24.0771Q23.0386 24.6069 22.7139 24.8872Q22.3926 25.1675 21.8184 25.1675L21.1484 25.1675Z"
          fill="#FF7474"/>
    <rect x="12.000000" y="6.000000" width="16.000000" height="1.000000" fill="#707070"/>
    <rect x="12.000000" y="9.000000" width="16.000000" height="1.000000" fill="#717171"/>
    <defs/>
</svg>